{"title":"BBC Imagine 2016 Georgia O'Keeffe By Myself","uid":15421597,"size":1139949732,"categoryP":"video","categoryS":"hd___tv_shows","magnet":"?xt=urn:btih:6163462da2a0f351e202f0dbc463a1460fe95217&amp;dn=BBC+Imagine+2016+Georgia+O%27Keeffe+By+Myself&amp;tr=udp%3A%2F%2Ftracker.leechers-paradise.org%3A6969&amp;tr=udp%3A%2F%2Fzer0day.ch%3A1337&amp;tr=udp%3A%2F%2Fopen.demonii.com%3A1337&amp;tr=udp%3A%2F%2Ftracker.coppersurfer.tk%3A6969&amp;tr=udp%3A%2F%2Fexodus.desync.com%3A6969","seeders":0,"leechers":1,"uploader":"RoaElson","files":2,"time":1469644271,"description":"BBC Imagine - Summer 2016: 3. Georgia O'Keeffe: By Myself\r\n\r\nOn the brink of the Depression in 1929, Georgia O'Keeffe - America's first great modernist painter - headed west. In the bright light of the New Mexico desert, she forged an independent life and found the solitude she needed for her truly original art.\r\n\r\nThe photographs taken of her by her older lover scandalised the public. Her flower forms were seen as a shocking and vibrant display of femininity, her bones and skulls as surreal and disturbing. Now, 30 years after her death, to coincide with a major Tate Modern show, imagine... tells the story of Georgia O'Keeffe, one of the most inspiring artists ever.\r\n\r\nFirst shown: 10:45pm 26 July 2016\r\nDuration: 67 minutes\r\n\r\nMedia Info:\r\n\r\nGeneral\r\nComplete name : /Users/David/Movies/TV Shows/imagine_ Summer 2016/imagine_ Summer 2016 - 3. Georgia O'Keeffe By Myself.mp4\r\nFormat : MPEG-4\r\nFormat profile : Base Media\r\nCodec ID : isom (isom/iso2/avc1/mp41)\r\nFile size : 1.06 GiB\r\nDuration : 1h 4mn\r\nOverall bit rate mode : Variable\r\nOverall bit rate : 2 353 Kbps\r\n\r\nVideo\r\nID : 1\r\nFormat : AVC\r\nFormat/Info : Advanced Video Codec\r\nFormat profile :   \r\nFormat settings, CABAC : Yes\r\nFormat settings, ReFrames : 2 frames\r\nCodec ID : avc1\r\nCodec ID/Info : Advanced Video Coding\r\nDuration : 1h 4mn\r\nBit rate mode : Variable\r\nBit rate : 2 254 Kbps\r\nMaximum bit rate : 3 500 Kbps\r\nWidth : 1 280 pixels\r\nHeight : 720 pixels\r\nDisplay aspect ratio : 16:9\r\nFrame rate mode : Constant\r\nFrame rate : 25.000 fps\r\nColor space : YUV\r\nChroma subsampling : 4:2:0\r\nBit depth : 8 bits\r\nScan type : Progressive\r\nBits/(Pixel*Frame) : 0.098\r\nStream size : 1.02 GiB (96%)\r\n\r\nAudio\r\nID : 2\r\nFormat : AAC\r\nFormat/Info : Advanced Audio Codec\r\nFormat profile : LC\r\nCodec ID : 40\r\nDuration : 1h 4mn\r\nBit rate mode : Constant\r\nBit rate : 93.5 Kbps\r\nChannel(s) : 2 channels\r\nChannel positions : Front: L R\r\nSampling rate : 48.0 KHz\r\nFrame rate : 46.875 fps (1024 spf)\r\nCompression mode : Lossy\r\nStream size : 43.2 MiB (4%)","torrent":{"xt":"urn:btih:6163462da2a0f351e202f0dbc463a1460fe95217","amp;dn":"BBC+Imagine+2016+Georgia+O%27Keeffe+By+Myself","amp;tr":["udp%3A%2F%2Ftracker.leechers-paradise.org%3A6969","udp%3A%2F%2Fzer0day.ch%3A1337","udp%3A%2F%2Fopen.demonii.com%3A1337","udp%3A%2F%2Ftracker.coppersurfer.tk%3A6969","udp%3A%2F%2Fexodus.desync.com%3A6969"],"infoHash":"6163462da2a0f351e202f0dbc463a1460fe95217","infoHashBuffer":{"type":"Buffer","data":[97,99,70,45,162,160,243,81,226,2,240,219,196,99,161,70,15,233,82,23]},"announce":[],"urlList":[]}}